<?xml version="1.0" encoding="UTF-8"?>
<svg id="Layer_1" data-name="Layer 1" xmlns="http://www.w3.org/2000/svg" xmlns:xlink="http://www.w3.org/1999/xlink" viewBox="0 0 426.47 384.98">
  <defs>
    <style>
      .cls-1 {
        stroke: #ff6a15;
        stroke-linecap: round;
        stroke-linejoin: round;
      }

      .cls-1, .cls-2 {
        stroke-width: 8px;
      }

      .cls-2, .cls-3 {
        fill: #fff;
        stroke: #000;
        stroke-miterlimit: 10;
      }

      .cls-3 {
        stroke-width: 10px;
      }

      .cls-4 {
        fill: url(#linear-gradient);
      }
    </style>
    <linearGradient id="linear-gradient" x1="62.75" y1="116.39" x2="477.29" y2="116.39" gradientTransform="translate(-56.77 308.86) scale(1 -1)" gradientUnits="userSpaceOnUse">
      <stop offset="0" stop-color="#00adff"/>
      <stop offset="1" stop-color="#065892"/>
      <stop offset="1" stop-color="#000"/>
    </linearGradient>
  </defs>
  <path class="cls-4" d="M132.24,378.94c-13.81,0-31.33-10-38.28-21.92L11.3,215.64c-7-12-7.09-32.21-.23-44.23L92.24,29.17c6.86-12,24.34-22.24,38.19-22.32l163.89-.85c13.81,0,31.33,10,38.28,21.92l82.61,141.38c7,12,7.09,32.21,.23,44.23l-81.2,142.24c-6.86,12-24.34,22.24-38.19,22.32l-163.81,.85Z"/>
  <path d="M294.31,12c11.73,0,27.18,8.86,33.08,18.94l82.61,141.39c5.93,10.15,6,28,.2,38.23l-81.14,142.24c-5.83,10.21-21.25,19.23-33,19.29l-163.76,.85h-.06c-11.74,0-27.2-8.85-33.1-18.94L16.48,212.61c-5.93-10.15-6-28-.2-38.23L97.42,32.14c5.83-10.21,21.25-19.23,33-19.29l163.82-.85h.12m0-12h-.17L130.43,.85c-16,.09-35.46,11.49-43.36,25.34L5.86,168.47c-7.91,13.86-7.79,36.46,.26,50.23l82.61,141.39c8,13.72,27.54,24.89,43.46,24.89h.17l163.76-.85c15.95-.09,35.46-11.49,43.36-25.34l81.14-142.32c7.91-13.86,7.79-36.46-.26-50.23L337.75,24.89c-8-13.72-27.54-24.89-43.46-24.89h.07Z"/>
  <path class="cls-3" d="M211.85,306.66c-32.67,0-58-9.23-76-27.69s-27-44.46-27-78v-24.39c0-33.25,9-58.99,27-77.23,18-18.24,43.33-27.36,76-27.36,18.75,0,35.71,3.15,50.87,9.45s27.21,15.3,36.15,27l-38.9,37.79c-5.61-5.26-12.22-9.34-19.44-12-7.55-2.85-15.55-4.3-23.62-4.28-15.24,0-27.03,4.07-35.38,12.2s-12.52,19.59-12.52,34.38v24.44c0,15.24,4.17,27,12.52,35.27,8.35,8.27,20.14,12.41,35.38,12.41,8.1,.02,16.12-1.55,23.62-4.61,7.35-2.95,13.98-7.45,19.44-13.19l38.9,40c-8.94,11.42-20.99,20.24-36.15,26.47-15.16,6.23-32.12,9.34-50.87,9.34Z"/>
  <path class="cls-2" d="M217.84,228.56c-10.45,0-18.53-2.89-24.24-8.68-5.71-5.79-8.56-13.92-8.57-24.41v-12.39c0-10.4,2.86-18.46,8.57-24.17,5.71-5.71,13.79-8.57,24.24-8.57s18.53,2.86,24.25,8.57,8.58,13.77,8.57,24.17v12.6c0,10.45-2.86,18.55-8.57,24.28s-13.8,8.6-24.25,8.6Zm-.07-19.33c4.05,0,7.2-1.18,9.45-3.55,2.25-2.37,3.37-5.7,3.37-10v-12.6c0-4.25-1.12-7.54-3.37-9.89-2.25-2.35-5.4-3.52-9.45-3.51-4,0-7.11,1.17-9.34,3.51s-3.34,5.64-3.33,9.89v12.6c0,4.29,1.11,7.63,3.33,10s5.33,3.56,9.34,3.55Z"/>
  <rect class="cls-1" x="286.74" y="66.25" width="79.69" height="232.16"/>
  <polygon class="cls-1" points="326.59 342.65 414.5 258.53 238.68 258.53 326.59 342.65"/>
</svg>